<?xml version="1.0" standalone="no"?>
<!DOCTYPE svg PUBLIC "-//W3C//DTD SVG 20010904//EN"
 "http://www.w3.org/TR/2001/REC-SVG-20010904/DTD/svg10.dtd">
<svg version="1.0" xmlns="http://www.w3.org/2000/svg"
 width="1921.000000pt" height="1921.000000pt" viewBox="0 0 1921.000000 1921.000000"
 preserveAspectRatio="xMidYMid meet">
<metadata>
Created by potrace 1.14, written by Peter Selinger 2001-2017
</metadata>
<g transform="translate(0.000000,1921.000000) scale(0.100000,-0.100000)"
fill="#000000" stroke="none">
<path d="M8837 17964 c-1 -1 -51 -4 -112 -8 -140 -8 -228 -21 -419 -61 -61
-13 -211 -61 -309 -99 -268 -104 -478 -243 -584 -389 -58 -80 -65 -87 -108
-112 -55 -32 -97 -40 -190 -35 -358 16 -620 -18 -884 -117 -441 -165 -732
-422 -926 -818 -39 -80 -48 -93 -90 -121 -35 -25 -83 -41 -145 -49 -190 -26
-421 -95 -580 -174 -313 -156 -563 -417 -766 -799 -42 -80 -69 -112 -124 -147
-37 -23 -142 -63 -188 -71 -98 -17 -266 -93 -392 -177 -386 -258 -641 -649
-730 -1117 -20 -106 -25 -182 -23 -365 2 -198 -6 -266 -41 -335 -10 -19 -77
-94 -150 -165 -140 -140 -218 -236 -296 -365 -71 -118 -136 -283 -154 -393 -3
-18 -8 -43 -11 -57 -3 -14 -8 -90 -11 -170 -7 -198 -12 -242 -40 -328 -32 -98
-81 -174 -205 -319 -192 -223 -320 -461 -397 -739 -53 -187 -67 -295 -67 -504
0 -224 26 -377 95 -575 68 -192 157 -345 305 -530 129 -160 143 -217 101 -400
-37 -163 -44 -234 -41 -405 4 -284 76 -524 239 -795 154 -259 353 -466 696
-726 206 -157 351 -242 487 -288 63 -21 75 -24 198 -46 75 -14 102 -17 215
-30 211 -25 225 -39 245 -255 37 -392 169 -765 389 -1100 309 -469 681 -791
1101 -954 88 -34 285 -89 355 -100 19 -3 46 -8 60 -10 56 -11 81 -15 136 -21
33 -4 70 -9 84 -11 57 -9 266 -18 420 -18 145 0 213 4 335 19 175 22 254 28
365 29 193 1 276 -19 329 -79 25 -28 28 -40 26 -82 -2 -26 -14 -84 -28 -128
-14 -44 -44 -140 -66 -213 -23 -73 -91 -264 -152 -425 -60 -160 -111 -296
-113 -302 -1 -5 -10 -27 -19 -49 -9 -21 -17 -42 -17 -46 0 -4 -13 -41 -29 -81
-16 -41 -55 -144 -86 -229 -31 -85 -72 -195 -90 -245 -41 -111 -48 -159 -29
-203 18 -44 48 -68 109 -87 50 -16 69 -18 205 -30 41 -3 89 -8 105 -10 17 -2
57 -7 90 -10 33 -3 74 -8 90 -10 111 -16 390 -22 473 -10 98 13 123 18 187 40
85 28 110 41 168 86 84 64 169 208 235 401 66 189 151 379 329 733 141 280
325 597 562 970 42 66 81 128 86 137 20 34 210 333 218 343 7 8 173 279 209
340 6 11 28 47 48 80 89 145 242 429 356 660 69 138 124 251 124 253 -1 1 9
24 21 50 172 381 325 796 434 1178 41 144 45 175 50 404 4 181 7 199 36 280
38 104 104 183 274 328 55 47 128 114 162 150 128 132 283 402 357 623 36 109
78 278 71 289 -2 4 -35 -4 -73 -16 -81 -27 -117 -34 -232 -41 -47 -3 -88 -8
-91 -11 -3 -4 -18 -45 -33 -92 -94 -285 -309 -597 -497 -721 -62 -41 -383
-203 -539 -271 -144 -64 -342 -138 -480 -181 -100 -31 -139 -42 -223 -62 -10
-2 -27 -7 -37 -10 -21 -7 -28 -8 -170 -35 -58 -10 -130 -22 -160 -25 -30 -3
-66 -7 -80 -10 -134 -23 -405 -22 -625 1 -241 26 -635 122 -809 198 -17 8 -56
24 -86 36 -137 55 -485 239 -510 269 -3 4 -36 27 -74 53 -108 74 -258 202
-342 291 -344 368 -463 798 -351 1263 8 34 33 104 56 159 85 200 207 371 387
545 524 506 1145 830 1616 843 92 3 147 -3 283 -28 56 -11 180 -56 239 -88 67
-35 143 -108 179 -170 57 -96 84 -218 91 -407 5 -119 15 -162 50 -217 55 -84
141 -83 236 3 41 37 95 129 104 175 2 13 9 42 14 64 6 22 14 60 17 85 33 240
193 544 405 765 341 357 662 475 1025 376 50 -13 127 -61 167 -104 73 -79 111
-217 112 -407 0 -175 -26 -261 -94 -312 -43 -31 -96 -30 -209 7 -120 39 -165
48 -241 49 -115 2 -243 -50 -328 -133 -114 -112 -155 -206 -241 -566 -25 -105
-58 -212 -87 -280 -94 -223 -108 -271 -108 -376 -1 -89 1 -99 29 -145 43 -68
93 -95 165 -88 30 3 59 8 64 11 4 3 28 5 53 5 104 -2 159 -104 128 -237 -26
-113 -114 -239 -223 -318 -55 -41 -200 -117 -222 -117 -9 0 -20 -4 -25 -9 -8
-6 -112 -36 -165 -46 -6 -1 -86 -16 -110 -20 -64 -11 -152 -22 -240 -30 -36
-3 -81 -8 -100 -10 -38 -5 -95 -12 -175 -20 -27 -3 -66 -8 -85 -10 -136 -18
-363 -23 -491 -12 -536 47 -892 380 -1075 1005 -55 188 -126 258 -248 245 -83
-8 -179 -88 -237 -197 -94 -176 -65 -349 105 -616 22 -36 46 -72 53 -80 7 -8
32 -42 57 -75 71 -96 276 -297 334 -329 10 -5 19 -12 22 -16 10 -13 127 -88
200 -128 134 -73 363 -150 497 -167 26 -3 80 -10 118 -15 71 -8 489 -6 535 3
14 3 49 8 78 11 87 10 181 25 307 50 223 44 562 138 714 198 339 136 580 364
639 608 3 14 6 63 7 110 0 85 0 85 -63 210 -76 153 -102 248 -107 395 -5 160
20 279 90 418 145 287 462 471 792 461 121 -4 155 -9 251 -40 23 -8 44 -14 45
-14 1 0 2 280 2 623 -1 572 -2 625 -18 662 -26 58 -61 90 -143 130 -86 42
-118 83 -117 150 1 52 11 72 72 139 137 151 207 322 226 556 5 58 5 2690 0
2755 -6 85 -20 204 -35 300 -10 62 -12 71 -31 165 -81 404 -298 899 -528 1203
-256 340 -718 627 -1226 762 -109 29 -263 58 -370 70 -87 10 -372 24 -378 19z
m273 -414 c41 -7 88 -14 105 -16 45 -6 207 -52 289 -81 526 -188 962 -589
1209 -1112 44 -94 119 -301 131 -363 2 -13 13 -66 24 -118 27 -126 44 -242 57
-380 12 -139 14 -185 30 -625 6 -174 14 -322 20 -400 2 -33 7 -112 11 -175 3
-63 8 -131 10 -150 24 -251 25 -939 0 -1125 -2 -16 -7 -55 -10 -86 -4 -31 -9
-67 -11 -80 -3 -13 -7 -41 -11 -64 -26 -176 -99 -379 -172 -475 -94 -124 -196
-185 -442 -265 -152 -50 -279 -107 -620 -278 -361 -181 -465 -223 -685 -278
-221 -54 -377 -73 -610 -73 -209 -1 -326 11 -504 50 -252 56 -479 159 -654
295 -58 45 -207 189 -207 199 0 4 -13 23 -30 41 -101 116 -208 368 -240 564
-15 91 -19 260 -8 333 4 31 10 71 13 87 17 114 87 285 165 403 203 308 542
481 846 432 70 -11 262 -70 339 -104 53 -24 188 -65 253 -77 38 -7 103 -10
161 -6 88 4 108 9 184 45 88 41 159 86 287 181 473 350 652 564 651 776 -1
229 -203 417 -377 350 -56 -21 -106 -71 -186 -184 -106 -150 -202 -262 -350
-407 -171 -168 -247 -223 -332 -240 -12 -2 -32 -7 -46 -9 -30 -7 -174 -7 -210
-1 -14 3 -52 7 -85 11 -33 4 -82 11 -110 16 -70 14 -260 19 -325 8 -96 -15
-113 -18 -205 -29 -210 -26 -345 -4 -525 87 -220 110 -476 372 -575 588 -40
88 -79 133 -145 169 -134 73 -289 74 -428 4 -94 -47 -182 -155 -182 -223 0
-82 110 -198 375 -395 241 -178 353 -292 418 -420 147 -294 114 -644 -85 -891
-174 -215 -421 -344 -738 -384 -99 -13 -283 -7 -375 11 -11 2 -29 6 -40 8
-196 38 -444 156 -616 296 -113 92 -237 233 -320 365 -96 151 -188 400 -219
590 -6 33 -12 71 -14 85 -34 198 -18 498 41 740 98 403 318 692 662 869 84 43
200 93 246 105 6 1 35 10 65 19 66 20 225 53 295 61 58 7 126 17 140 20 6 2
37 8 71 15 34 7 66 16 71 20 6 3 27 78 47 166 40 173 61 221 148 335 126 163
308 300 523 392 62 26 218 73 270 82 17 2 50 8 75 12 84 14 308 20 359 9 14
-2 47 -7 74 -10 28 -3 53 -8 56 -9 3 -2 22 -7 41 -10 20 -3 69 -16 110 -30 40
-14 78 -22 84 -19 6 4 49 47 96 97 213 224 318 324 405 381 234 154 529 259
790 281 44 4 81 8 83 9 8 7 297 -5 362 -15z m-5456 -2962 c27 -130 28 -473 2
-589 -43 -192 -176 -377 -377 -521 -104 -75 -155 -98 -384 -176 -110 -38 -207
-72 -216 -76 -13 -6 -18 0 -22 31 -6 46 -1 298 7 333 3 14 8 39 12 55 13 66
58 203 86 265 112 240 374 512 608 630 83 42 195 79 241 80 33 0 37 -3 43 -32z
m83 -1447 c35 -7 80 -18 102 -26 100 -35 271 -136 341 -202 19 -18 38 -33 43
-33 18 0 97 -124 97 -152 0 -113 -168 -199 -533 -273 -10 -2 -26 -6 -35 -9 -9
-3 -28 -7 -42 -10 -14 -3 -34 -7 -45 -10 -11 -2 -67 -14 -125 -26 -448 -93
-690 -212 -775 -383 -45 -92 -28 -138 63 -168 120 -40 180 -105 203 -222 15
-77 13 -230 -6 -347 -2 -14 -9 -70 -15 -125 -6 -55 -13 -120 -16 -145 -7 -59
-40 -209 -55 -246 -35 -91 -57 -191 -55 -253 4 -127 60 -194 233 -279 142 -69
290 -198 463 -402 146 -172 210 -240 306 -321 83 -71 98 -89 69 -89 -18 0
-280 -115 -390 -172 -354 -182 -587 -409 -694 -678 -16 -41 -32 -86 -35 -100
-2 -14 -9 -47 -15 -75 -10 -52 -9 -241 2 -284 28 -106 83 -207 148 -267 53
-50 135 -97 254 -146 151 -63 199 -76 275 -72 108 6 169 38 156 82 -4 10 -48
59 -99 108 -114 111 -150 156 -184 231 -23 50 -27 71 -27 158 0 122 6 172 38
296 65 255 198 431 376 496 273 101 713 -21 920 -254 196 -221 274 -565 216
-951 -8 -51 -46 -181 -74 -252 -25 -64 -34 -82 -95 -190 -64 -114 -182 -254
-315 -373 -96 -87 -304 -213 -457 -278 -114 -49 -309 -102 -415 -114 -36 -4
-78 -9 -95 -11 -53 -6 -218 -6 -280 1 -356 38 -656 178 -901 420 -305 302
-465 687 -459 1105 4 213 38 357 137 582 70 159 72 147 -36 210 -292 169 -471
408 -555 744 -27 107 -32 145 -36 294 -4 185 25 373 87 555 64 191 285 455
381 455 27 0 56 -40 67 -94 11 -55 48 -106 78 -106 20 0 89 38 142 79 110 84
176 184 189 283 10 78 -10 128 -79 196 -113 113 -154 229 -154 432 1 447 310
901 817 1199 158 93 370 180 475 197 20 3 40 8 44 10 3 2 33 7 65 10 32 4 60
8 61 9 8 7 192 -4 249 -14z m2590 -573 c48 -21 83 -68 104 -143 57 -195 74
-243 128 -352 46 -91 58 -125 55 -151 -9 -68 -18 -74 -239 -168 -91 -39 -159
-72 -294 -146 -79 -44 -112 -49 -159 -24 -35 18 -52 51 -107 211 -65 186 -141
359 -185 420 -18 25 -20 67 -4 100 12 25 31 41 69 60 30 14 57 25 60 25 4 0
21 7 38 14 18 8 91 38 162 67 245 98 311 113 372 87z m-1551 -258 c200 -39
382 -139 500 -275 145 -167 222 -365 239 -615 12 -184 23 -231 68 -286 42 -50
97 -74 178 -74 113 0 218 40 364 140 170 116 253 170 263 170 6 0 12 3 14 8 5
12 194 102 258 122 105 34 192 56 233 59 90 5 211 -36 330 -113 86 -55 277
-211 277 -226 0 -9 -115 -101 -185 -147 -63 -42 -115 -69 -441 -231 -165 -82
-483 -250 -764 -405 -154 -84 -265 -180 -313 -271 -31 -59 -88 -188 -92 -207
-8 -39 -99 -260 -132 -319 -65 -115 -170 -197 -278 -217 -42 -7 -272 -6 -315
2 -14 3 -47 7 -75 10 -136 15 -330 77 -470 148 -84 43 -263 160 -305 199 -14
13 -38 34 -55 46 -69 54 -184 164 -267 257 -274 306 -422 659 -421 1005 0 123
5 160 38 300 12 55 55 159 97 241 186 359 544 623 928 684 88 14 243 12 326
-5z m630 -3230 c17 -6 42 -23 57 -38 37 -39 56 -86 73 -187 11 -63 67 -214
113 -305 71 -141 262 -444 356 -565 34 -44 64 -85 68 -91 5 -8 -25 -24 -86
-47 -50 -19 -101 -38 -112 -43 -11 -4 -22 -8 -25 -9 -3 -1 -12 -5 -20 -8 -87
-38 -533 -199 -560 -203 -48 -6 -101 22 -121 65 -16 34 -17 72 -5 156 9 66 17
128 21 165 2 19 6 55 10 80 17 112 21 150 19 215 -4 174 -63 298 -218 456 -92
96 -111 160 -71 247 38 82 95 106 285 117 58 4 106 8 108 10 6 5 75 -5 108
-15z m1369 -1675 c124 -24 251 -77 396 -167 170 -106 286 -163 459 -224 36
-12 99 -37 140 -54 86 -36 238 -76 325 -86 33 -3 83 -10 110 -14 82 -13 264
-5 315 14 115 43 238 48 308 12 42 -22 64 -75 63 -154 0 -37 -3 -76 -5 -87 -2
-11 -7 -49 -11 -85 -4 -36 -9 -74 -11 -85 -3 -11 -7 -36 -9 -55 -32 -253 -78
-412 -200 -700 -46 -108 -107 -256 -135 -330 -64 -166 -70 -181 -130 -302
-122 -244 -305 -472 -505 -632 -38 -31 -74 -59 -80 -64 -34 -27 -210 -130
-270 -157 -217 -101 -356 -130 -631 -135 -399 -6 -1170 -5 -1294 3 -129 7
-150 10 -260 29 -121 20 -166 31 -250 59 -269 89 -573 347 -797 679 -47 69
-203 335 -203 345 0 2 -11 28 -24 57 -44 97 -97 252 -142 410 -52 183 -44 380
21 507 46 91 229 291 370 403 282 224 938 584 1117 612 20 3 77 15 125 25 84
19 511 108 563 117 14 3 77 16 140 30 63 14 138 28 165 31 28 3 52 8 55 10 6
6 244 -4 285 -12z m3221 -198 c39 -30 52 -66 49 -132 -2 -50 -21 -184 -40
-285 -3 -14 -8 -41 -11 -60 -19 -125 -96 -384 -154 -525 -17 -40 -30 -72 -80
-190 -23 -55 -47 -109 -53 -120 -6 -11 -12 -22 -13 -25 -6 -24 -156 -328 -272
-550 -158 -303 -349 -631 -799 -1370 -338 -555 -510 -876 -738 -1370 -156
-338 -259 -548 -282 -575 -27 -31 -85 -71 -113 -79 -52 -14 -140 -21 -290 -21
-169 0 -190 6 -226 61 -35 52 -28 84 71 319 37 88 114 279 171 425 58 146 109
274 113 285 11 25 52 134 131 345 73 197 112 282 173 375 77 119 173 219 312
325 406 310 691 649 915 1085 112 218 168 364 289 750 27 88 75 239 105 335
82 263 162 576 190 740 12 73 45 107 149 154 31 14 83 38 114 52 166 76 240
90 289 51z"/>
<path d="M8749 16266 c-2 -2 -47 -6 -99 -10 -52 -3 -104 -7 -115 -10 -11 -2
-42 -7 -70 -10 -202 -28 -402 -84 -527 -147 -262 -132 -413 -366 -404 -629 4
-153 61 -190 286 -191 146 -1 233 47 360 196 130 153 209 219 340 285 163 81
311 114 525 114 246 1 519 -53 613 -120 75 -53 101 -65 158 -71 172 -18 295
126 254 298 -18 73 -92 145 -193 188 -84 34 -249 76 -342 87 -33 3 -69 8 -80
11 -24 5 -700 14 -706 9z"/>
<path d="M10407 14248 c-126 -175 -164 -264 -207 -483 -51 -268 -159 -558
-276 -741 -121 -190 -274 -336 -440 -418 -59 -29 -193 -77 -259 -92 -47 -12
-324 -63 -369 -69 -27 -3 -52 -8 -55 -10 -4 -2 -38 -6 -76 -10 -39 -4 -79 -9
-90 -11 -30 -6 -234 -6 -280 1 -230 32 -375 140 -430 322 -10 32 -14 80 -11
143 2 81 8 109 41 195 48 126 50 178 11 211 -22 20 -36 24 -68 20 -97 -12
-225 -148 -279 -296 -35 -94 -35 -273 0 -378 75 -228 266 -376 551 -427 48 -8
235 -36 275 -40 22 -3 56 -7 75 -11 80 -13 407 -13 495 0 410 60 782 286 1106
671 93 111 130 165 165 241 24 52 68 171 79 214 67 247 112 471 130 645 4 33
8 71 11 85 2 14 7 84 10 155 6 127 -2 185 -25 185 -5 0 -43 -46 -84 -102z"/>
<path d="M6067 6484 c-1 -1 -112 -4 -247 -8 -553 -14 -629 -20 -692 -52 -32
-16 -48 -47 -40 -77 10 -37 58 -46 273 -48 753 -7 1665 0 2034 16 28 1 82 3
122 3 59 2 77 6 98 25 44 38 39 78 -14 107 -26 14 -36 14 -521 26 -259 6
-1008 12 -1013 8z"/>
<path d="M4264 5828 c-52 -13 -66 -72 -29 -116 35 -41 88 -52 320 -67 50 -3
128 -8 175 -11 47 -3 819 -7 1715 -10 897 -2 1664 -4 1706 -5 95 -1 144 18
163 63 16 36 12 76 -9 97 -15 15 -94 16 -2015 11 -865 -2 -1575 14 -1955 43
-22 2 -54 0 -71 -5z"/>
<path d="M4800 5049 c-49 -15 -80 -47 -80 -81 0 -66 41 -94 152 -105 89 -9
106 -9 233 1 55 5 129 10 165 12 81 5 691 3 820 -1 148 -6 820 -7 966 -1 483
18 522 21 546 43 32 29 40 60 23 92 -22 44 -61 55 -167 46 -113 -9 -2166 -10
-2433 -2 -123 4 -202 3 -225 -4z"/>
<path d="M10775 17785 c125 -100 230 -196 300 -276 93 -105 222 -291 290 -417
17 -31 37 -54 49 -57 86 -18 217 -45 245 -50 19 -3 37 -8 41 -10 4 -2 22 -7
41 -10 154 -27 656 -179 938 -284 100 -38 356 -143 426 -176 203 -95 396 -190
485 -240 58 -32 128 -70 155 -85 182 -99 546 -336 760 -494 193 -144 519 -412
621 -511 11 -11 44 -41 72 -67 28 -26 53 -52 57 -58 3 -6 -235 -251 -529 -546
-571 -571 -557 -555 -542 -636 7 -37 39 -78 74 -97 30 -16 93 -17 123 -1 13 7
263 251 555 542 458 458 533 528 545 515 141 -143 413 -461 553 -647 55 -74
103 -137 106 -140 19 -19 330 -486 330 -496 0 -3 13 -24 28 -47 103 -152 358
-648 472 -917 29 -69 58 -138 66 -155 70 -163 217 -598 284 -840 48 -175 121
-497 145 -640 9 -55 18 -102 20 -105 1 -3 5 -27 9 -55 3 -27 8 -59 10 -70 2
-11 7 -42 10 -70 4 -27 9 -61 11 -75 2 -14 6 -52 10 -85 3 -33 8 -71 10 -85 2
-14 7 -61 11 -105 3 -44 7 -100 9 -125 9 -100 16 -221 20 -332 l4 -118 -755 0
c-825 0 -795 2 -838 -57 -30 -41 -33 -114 -6 -158 43 -70 -2 -67 840 -67 l758
-1 -3 -106 c-5 -127 -15 -312 -20 -361 -2 -19 -6 -66 -10 -105 -3 -38 -8 -86
-10 -105 -14 -121 -18 -157 -21 -175 -2 -11 -6 -42 -10 -70 -5 -44 -44 -281
-59 -360 -22 -108 -59 -282 -77 -350 -11 -44 -22 -91 -24 -105 -3 -14 -11 -45
-18 -70 -8 -25 -19 -63 -25 -85 -127 -458 -304 -918 -522 -1355 -101 -201
-133 -261 -253 -465 -39 -66 -73 -124 -75 -130 -2 -5 -21 -35 -41 -65 -20 -30
-63 -95 -96 -145 -32 -49 -64 -96 -71 -103 -7 -7 -13 -17 -13 -22 0 -5 -6 -15
-13 -22 -7 -7 -28 -35 -47 -63 -19 -27 -38 -54 -43 -60 -4 -5 -38 -51 -75
-100 -58 -78 -177 -230 -192 -245 -3 -3 -22 -26 -43 -52 -21 -26 -43 -53 -50
-60 -7 -8 -41 -47 -77 -88 -35 -41 -86 -97 -111 -125 -26 -27 -63 -68 -83 -89
l-36 -39 -26 24 c-14 13 -257 254 -538 536 -552 551 -533 535 -620 519 -43 -8
-94 -59 -102 -103 -16 -86 -31 -68 524 -624 284 -284 526 -526 536 -538 20
-22 20 -22 -15 -53 -19 -17 -59 -54 -89 -82 -508 -470 -1096 -876 -1735 -1199
-103 -52 -325 -157 -332 -157 -2 0 -30 -12 -61 -26 -272 -125 -836 -317 -1142
-390 -8 -1 -53 -13 -100 -24 -94 -24 -109 -27 -295 -63 -148 -30 -361 -66
-420 -73 -22 -2 -49 -6 -60 -8 -11 -2 -49 -7 -85 -11 -36 -3 -76 -8 -90 -10
-14 -2 -61 -7 -105 -10 -44 -4 -98 -9 -120 -11 -53 -6 -304 -17 -385 -18 l-65
-1 -2 425 c-1 234 -2 429 -2 433 -1 4 -24 -20 -52 -55 -29 -35 -92 -102 -140
-150 l-89 -87 0 -285 0 -285 -117 4 c-193 8 -425 24 -563 40 -111 13 -148 17
-170 20 -14 2 -45 7 -70 10 -25 3 -85 12 -135 20 -99 16 -122 18 -176 16 l-37
-1 -66 -151 c-37 -83 -85 -196 -108 -252 -46 -115 -81 -189 -110 -229 -11 -16
-17 -29 -14 -29 3 -1 9 -2 14 -3 71 -18 84 -20 202 -41 47 -8 96 -17 110 -20
14 -3 45 -8 70 -11 25 -3 52 -7 60 -9 13 -4 205 -30 295 -40 42 -5 129 -14
200 -20 33 -3 80 -8 105 -10 282 -27 1079 -27 1305 0 17 2 68 7 115 10 47 3
99 8 115 10 17 2 50 6 75 9 51 6 162 19 170 21 26 6 117 18 123 17 4 -1 26 2
50 7 23 5 61 12 85 16 38 5 128 21 227 40 23 4 237 50 325 70 253 56 696 193
1040 321 297 110 754 324 1075 504 209 117 525 316 745 470 76 53 361 268 370
279 3 3 52 44 110 91 58 46 119 96 135 111 182 159 265 238 480 453 138 138
268 272 290 297 22 26 60 70 85 99 25 29 50 58 56 64 29 30 171 204 257 316
53 69 100 130 105 135 109 137 424 617 538 821 222 396 364 693 518 1082 64
160 208 569 221 628 2 11 24 89 48 174 35 122 100 382 122 490 43 206 86 448
100 560 10 80 17 135 21 153 2 10 6 48 10 85 3 36 7 73 9 82 2 8 6 57 10 109
4 51 8 105 10 119 27 204 26 1050 0 1307 -2 22 -7 72 -10 110 -6 67 -9 98 -20
203 -6 54 -15 127 -20 159 -2 12 -9 57 -15 100 -38 262 -93 543 -150 768 -22
88 -42 167 -44 175 -62 250 -228 737 -358 1045 -268 640 -667 1328 -1061 1830
-280 357 -433 531 -732 830 -171 172 -234 232 -361 345 -43 39 -227 196 -258
220 -10 8 -33 27 -50 41 -156 130 -500 377 -647 464 -63 37 -130 78 -149 90
-34 22 -179 107 -250 148 -19 10 -107 62 -195 115 -163 97 -399 222 -421 222
-7 0 -14 3 -16 8 -8 19 -496 222 -760 315 -149 53 -422 140 -543 172 -210 57
-430 110 -540 131 -11 2 -54 10 -95 19 -83 16 -349 61 -420 70 -25 3 -56 8
-70 10 -14 2 -50 7 -80 10 -30 3 -71 8 -91 11 -20 2 -58 6 -85 9 -27 2 -80 7
-119 11 l-69 6 109 -87z"/>
<path d="M12248 16440 c-15 -12 -43 -61 -69 -122 l-43 -103 -1 -219 c-1 -170
2 -219 12 -223 24 -9 40 16 98 150 32 72 72 164 90 202 99 215 105 233 83 280
-24 54 -121 74 -170 35z"/>
<path d="M13273 15892 c-13 -9 -45 -53 -72 -97 -28 -44 -55 -85 -61 -92 -5 -7
-10 -14 -10 -16 0 -3 -43 -73 -96 -157 -52 -83 -97 -161 -100 -173 -6 -33 14
-84 41 -101 32 -21 97 -20 122 2 11 9 38 46 60 82 22 36 93 148 157 250 96
153 116 191 116 223 0 78 -96 127 -157 79z"/>
<path d="M14225 15205 c-17 -6 -61 -48 -100 -92 -175 -199 -311 -357 -319
-371 -44 -76 43 -176 125 -144 14 6 117 114 228 242 196 225 201 232 201 275
0 44 -12 65 -51 86 -32 17 -53 18 -84 4z"/>
<path d="M15245 13590 c-132 -88 -250 -171 -262 -186 -55 -62 -4 -164 81 -164
13 0 84 40 157 88 262 172 367 244 384 262 38 42 12 140 -40 154 -59 17 -79 7
-320 -154z"/>
<path d="M16030 12721 c-126 -51 -508 -235 -528 -255 -57 -57 -12 -166 70
-166 25 0 102 31 278 113 41 19 122 56 180 82 58 26 113 55 123 64 43 41 36
122 -15 154 -39 25 -61 27 -108 8z"/>
<path d="M16410 11629 c-14 -5 -133 -38 -265 -75 -132 -36 -251 -71 -265 -79
-53 -28 -68 -115 -27 -153 48 -45 66 -43 302 23 121 33 251 69 289 79 85 23
114 48 122 104 6 39 4 45 -30 77 -39 37 -73 43 -126 24z"/>
<path d="M16610 10489 c-42 -6 -92 -11 -215 -24 -27 -3 -66 -7 -85 -10 -19 -2
-62 -7 -95 -11 -128 -12 -147 -19 -170 -64 -24 -47 -19 -78 20 -117 l35 -35
78 6 c42 4 88 9 102 11 41 7 101 14 172 20 37 3 77 8 89 10 12 2 54 7 93 11
86 8 122 25 142 67 22 46 8 95 -36 125 -33 22 -46 23 -130 11z"/>
<path d="M10975 10214 c-107 -24 -190 -58 -258 -106 -51 -35 -124 -116 -161
-177 -59 -97 -79 -171 -80 -296 -1 -119 2 -137 34 -222 99 -265 393 -427 670
-368 230 49 418 233 464 455 61 297 -115 600 -404 691 -62 20 -219 33 -265 23z
m197 -346 c98 -46 148 -119 156 -229 4 -57 1 -75 -21 -120 -30 -63 -40 -76
-87 -111 -174 -128 -425 1 -423 217 2 95 40 170 114 221 79 55 172 62 261 22z"/>
<path d="M11833 9870 c-27 -11 -26 -7 -28 -135 -1 -107 -10 -193 -27 -265 -32
-140 -103 -308 -176 -418 -20 -30 -45 -67 -54 -81 -45 -66 -15 -94 142 -132
69 -16 170 -41 225 -54 414 -100 555 -134 585 -140 8 -2 125 -30 260 -63 258
-63 545 -132 570 -137 8 -2 92 -22 185 -45 153 -37 273 -66 315 -75 47 -11
361 -87 390 -95 19 -5 121 -29 225 -54 105 -25 285 -68 400 -96 188 -46 269
-65 315 -75 15 -3 182 -44 458 -111 171 -42 173 -42 190 -43 8 -1 12 -18 12
-50 0 -81 11 -87 265 -156 285 -77 359 -95 381 -95 13 0 37 12 54 28 50 44 47
122 -5 156 -17 11 -159 54 -240 72 -113 25 -150 41 -164 71 -14 33 -10 30
-306 168 -103 48 -173 81 -330 155 -49 23 -121 57 -160 75 -458 214 -687 321
-770 360 -55 26 -127 60 -160 75 -33 15 -89 41 -125 58 -208 98 -323 152 -325
152 -2 0 -69 32 -150 70 -81 39 -148 70 -150 70 -1 0 -58 26 -126 59 -119 56
-164 77 -329 154 -83 39 -359 167 -490 229 -47 22 -112 53 -145 68 -118 55
-494 231 -606 283 -60 29 -72 31 -106 17z m367 -498 c36 -16 99 -46 140 -65
107 -49 242 -112 340 -159 47 -23 108 -51 135 -63 28 -13 108 -50 179 -84 70
-33 130 -61 131 -61 2 0 65 -30 141 -66 77 -36 157 -74 179 -84 117 -54 149
-70 138 -70 -6 0 -96 21 -199 46 -103 25 -195 47 -203 49 -9 2 -131 31 -271
65 -140 34 -262 63 -270 65 -8 2 -64 15 -125 30 -60 15 -117 28 -125 30 -47
10 -321 77 -353 86 -31 8 -37 14 -31 27 13 30 73 216 84 260 9 35 14 41 28 33
9 -5 46 -22 82 -39z"/>
<path d="M16105 8952 c-37 -8 -65 -34 -76 -73 -11 -34 -9 -44 12 -85 39 -76
60 -87 189 -99 36 -3 78 -8 93 -10 15 -2 60 -6 100 -10 40 -4 83 -9 97 -10 14
-2 55 -6 91 -10 l67 -7 45 44 c50 48 64 84 51 130 -16 56 -47 70 -189 83 -38
3 -81 8 -95 10 -14 2 -52 6 -85 9 -96 10 -166 17 -225 25 -30 4 -64 5 -75 3z"/>
<path d="M15504 6885 c-67 -28 -82 -116 -28 -164 16 -14 150 -80 297 -145 263
-117 268 -119 307 -107 61 18 87 83 58 146 -12 27 -42 43 -273 145 -71 32
-165 74 -208 94 -95 44 -114 48 -153 31z"/>
<path d="M14981 5942 c-57 -27 -76 -103 -38 -153 10 -14 83 -65 146 -104 9 -5
84 -55 166 -109 188 -124 213 -137 250 -131 64 11 102 87 75 147 -7 13 -100
82 -223 163 -325 215 -322 214 -376 187z"/>
<path d="M13788 4595 c-31 -29 -43 -64 -34 -100 5 -19 76 -111 141 -181 18
-19 158 -176 209 -234 27 -30 62 -61 77 -69 58 -29 131 13 143 80 6 35 -21 77
-110 176 -39 43 -113 125 -163 183 -129 147 -157 170 -200 170 -25 0 -45 -8
-63 -25z"/>
<path d="M12945 3966 c-64 -28 -71 -97 -17 -182 130 -202 228 -356 237 -371
30 -53 70 -94 98 -101 65 -17 127 30 127 96 0 28 -31 84 -162 289 -187 291
-201 305 -283 269z"/>
<path d="M11972 3477 c-12 -7 -30 -23 -39 -36 -31 -45 -33 -37 147 -451 39
-91 82 -176 95 -189 64 -65 191 10 165 98 -4 14 -58 143 -121 286 -98 226
-133 291 -158 296 -39 7 -70 6 -89 -4z"/>
<path d="M10949 3111 c-34 -34 -38 -77 -15 -157 8 -27 40 -147 71 -268 30
-120 60 -227 65 -237 35 -65 141 -64 176 2 19 38 18 48 -17 184 -17 66 -33
127 -34 135 -2 8 -22 85 -44 170 -34 133 -44 158 -68 177 -41 34 -97 31 -134
-6z"/>
</g>
</svg>
